<svg width="35" height="35" viewBox="0 0 35 35" fill="none" xmlns="http://www.w3.org/2000/svg">
<rect x="0.5" y="0.5" width="34" height="34" rx="17" stroke="white"/>
<path d="M9.84233 12.8182V23H8.30114V14.3594H8.24148L5.8054 15.9503V14.4787L8.34588 12.8182H9.84233ZM16.0369 23.1392C15.3243 23.1392 14.6946 23.0166 14.1477 22.7713C13.6042 22.526 13.1783 22.188 12.87 21.7571C12.5618 21.3262 12.4093 20.8357 12.4126 20.2855C12.4093 19.8546 12.4972 19.4586 12.6761 19.0973C12.8584 18.7327 13.1054 18.4295 13.4169 18.1875C13.7285 17.9422 14.0765 17.7865 14.4609 17.7202V17.6605C13.9538 17.5379 13.5478 17.2661 13.2429 16.8452C12.938 16.4242 12.7872 15.9403 12.7905 15.3935C12.7872 14.8731 12.9247 14.4091 13.2031 14.0014C13.4848 13.5904 13.871 13.2673 14.3615 13.032C14.852 12.7966 15.4105 12.679 16.0369 12.679C16.6567 12.679 17.2102 12.7983 17.6974 13.0369C18.188 13.2723 18.5741 13.5954 18.8558 14.0064C19.1375 14.4141 19.2801 14.8764 19.2834 15.3935C19.2801 15.9403 19.1243 16.4242 18.8161 16.8452C18.5078 17.2661 18.1068 17.5379 17.6129 17.6605V17.7202C17.9941 17.7865 18.3371 17.9422 18.642 18.1875C18.9503 18.4295 19.1955 18.7327 19.3778 19.0973C19.5634 19.4586 19.6579 19.8546 19.6612 20.2855C19.6579 20.8357 19.5021 21.3262 19.1939 21.7571C18.8857 22.188 18.4581 22.526 17.9112 22.7713C17.3677 23.0166 16.7429 23.1392 16.0369 23.1392ZM16.0369 21.8814C16.4579 21.8814 16.8224 21.8118 17.1307 21.6726C17.4389 21.5301 17.6776 21.3329 17.8466 21.081C18.0156 20.8258 18.1018 20.5275 18.1051 20.1861C18.1018 19.8314 18.009 19.5182 17.8267 19.2464C17.6477 18.9747 17.4041 18.7609 17.0959 18.6051C16.7876 18.4493 16.4347 18.3714 16.0369 18.3714C15.6359 18.3714 15.2796 18.4493 14.968 18.6051C14.6565 18.7609 14.4112 18.9747 14.2322 19.2464C14.0533 19.5182 13.9654 19.8314 13.9688 20.1861C13.9654 20.5275 14.0466 20.8258 14.2124 21.081C14.3814 21.3329 14.6217 21.5301 14.9332 21.6726C15.2448 21.8118 15.6127 21.8814 16.0369 21.8814ZM16.0369 17.1435C16.375 17.1435 16.675 17.0755 16.9368 16.9396C17.1986 16.8037 17.4041 16.6148 17.5533 16.3729C17.7057 16.1309 17.7836 15.8475 17.7869 15.5227C17.7836 15.2045 17.7074 14.9261 17.5582 14.6875C17.4124 14.4489 17.2086 14.2649 16.9467 14.1357C16.6849 14.0031 16.3816 13.9368 16.0369 13.9368C15.6856 13.9368 15.3774 14.0031 15.1122 14.1357C14.8504 14.2649 14.6465 14.4489 14.5007 14.6875C14.3549 14.9261 14.2836 15.2045 14.2869 15.5227C14.2836 15.8475 14.3565 16.1309 14.5057 16.3729C14.6548 16.6148 14.8603 16.8037 15.1222 16.9396C15.3873 17.0755 15.6922 17.1435 16.0369 17.1435ZM24.4551 21.2898V14.5682H25.7924V21.2898H24.4551ZM21.7654 18.5952V17.2628H28.487V18.5952H21.7654Z" fill="white"/>
</svg>
