<svg width="69" height="30" viewBox="0 0 69 30" fill="none" xmlns="http://www.w3.org/2000/svg">
<g clip-path="url(#clip0_471_5078)">
<path d="M3.89519 0.959717H24.0592C26.2555 0.959717 28.0325 2.73379 28.0325 4.92663V25.0581C28.0325 27.251 26.2555 29.0251 24.0592 29.0251H3.89519C1.69881 29.0251 -0.078125 27.251 -0.078125 25.0581V4.93424C-0.078125 2.7414 1.69881 0.959717 3.89519 0.959717Z" fill="white"/>
<path d="M6.77733 2.79468C6.335 2.79468 5.97656 3.15254 5.97656 3.59415C5.97656 4.03577 6.335 4.38601 6.77733 4.38601C7.21965 4.38601 7.57809 4.02815 7.57809 3.59415C7.57046 3.15254 7.21965 2.79468 6.77733 2.79468ZM21.0843 2.79468C20.642 2.79468 20.2835 3.15254 20.2835 3.59415C20.2835 4.03577 20.642 4.38601 21.0843 4.38601C21.5266 4.38601 21.8851 4.02815 21.8851 3.59415C21.8851 3.15254 21.5266 2.79468 21.0843 2.79468Z" fill="#DEDEDE"/>
<path d="M6.74731 3.47998C6.46513 3.49521 6.48038 3.89875 6.48038 3.89875C7.97514 6.80731 10.7282 8.23114 13.9008 8.23114C17.0657 8.22353 19.8493 6.78447 21.3364 3.88352C21.3364 3.88352 21.3975 3.33531 20.8102 3.52567C19.2773 6.06114 16.7073 7.55349 13.9008 7.5611C11.0791 7.5611 8.52424 6.07637 6.99135 3.54089C6.88458 3.49521 6.80832 3.47998 6.74731 3.47998ZM16.8522 14.7716L15.998 17.2995L15.1744 14.7716H14.366L15.6701 18.4416H16.2955L17.1496 16.0279L18.0037 18.4416H18.6367L19.9408 14.7716H19.1553L18.3241 17.2995L17.4775 14.7716H16.8522ZM12.3374 14.7716L10.6901 18.4416H11.468L11.7883 17.7335L11.8112 17.6802H13.5271L13.8627 18.4492H14.6558L13.0238 14.7944L13.0085 14.7716H12.3374ZM24.2802 14.7716V18.4416H25.0352V14.7716H24.2802ZM2.79688 14.7792V18.4568H3.55951V16.9644H5.2678V18.4568H6.03043V14.7792H5.2678V16.2639H3.55188V14.7792H2.79688ZM9.54616 14.7792V16.8807C9.54616 17.4822 9.24111 17.7944 8.69202 17.7944C8.14292 17.7944 7.83787 17.467 7.83787 16.8502V14.7716H7.07524V16.8731C7.07524 17.9086 7.66247 18.5025 8.67676 18.5025C9.70632 18.5025 10.3012 17.901 10.3012 16.8426V14.7716C10.3088 14.7792 9.54616 14.7792 9.54616 14.7792ZM20.5509 14.7792V18.4492H23.3803V17.7791H21.3059V16.8655H22.6863V16.1954H21.3059V15.4416H23.3117V14.7716H20.5509V14.7792ZM12.6653 15.7081L13.2068 16.9416L13.2449 17.0253H12.0934L12.1315 16.9416L12.6653 15.7081Z" fill="black"/>
</g>
<path d="M32.6321 18.5V11.2273H34.1697V14.228H37.2912V11.2273H38.8253V18.5H37.2912V15.4957H34.1697V18.5H32.6321ZM43.5625 16.1776V13.0455H45.0753V18.5H43.6229V17.5092H43.5661C43.4429 17.8288 43.2382 18.0857 42.9517 18.2798C42.6676 18.474 42.3208 18.571 41.9112 18.571C41.5466 18.571 41.2259 18.4882 40.9489 18.3224C40.6719 18.1567 40.4553 17.9212 40.299 17.6158C40.1451 17.3104 40.067 16.9446 40.0646 16.5185V13.0455H41.5774V16.2486C41.5798 16.5705 41.6662 16.825 41.8366 17.0121C42.0071 17.1991 42.2356 17.2926 42.522 17.2926C42.7043 17.2926 42.8748 17.2512 43.0334 17.1683C43.192 17.0831 43.3198 16.9576 43.4169 16.7919C43.5163 16.6262 43.5649 16.4214 43.5625 16.1776ZM47.8407 18.603C47.4927 18.603 47.1826 18.5426 46.9103 18.4219C46.6381 18.2988 46.4226 18.1177 46.264 17.8786C46.1078 17.6371 46.0297 17.3364 46.0297 16.9766C46.0297 16.6735 46.0853 16.419 46.1966 16.2131C46.3078 16.0071 46.4593 15.8414 46.6511 15.7159C46.8429 15.5904 47.0607 15.4957 47.3045 15.4318C47.5507 15.3679 47.8088 15.3229 48.0787 15.2969C48.3959 15.2637 48.6516 15.233 48.8457 15.2045C49.0398 15.1738 49.1807 15.1288 49.2683 15.0696C49.3559 15.0104 49.3997 14.9228 49.3997 14.8068V14.7855C49.3997 14.5606 49.3287 14.3866 49.1866 14.2635C49.0469 14.1404 48.8481 14.0788 48.59 14.0788C48.3178 14.0788 48.1011 14.1392 47.9402 14.2599C47.7792 14.3783 47.6726 14.5275 47.6206 14.7074L46.2214 14.5938C46.2924 14.2623 46.4321 13.9759 46.6404 13.7344C46.8488 13.4905 47.1175 13.3035 47.4466 13.1733C47.778 13.0407 48.1615 12.9744 48.5971 12.9744C48.9002 12.9744 49.1902 13.0099 49.4672 13.081C49.7465 13.152 49.9939 13.2621 50.2093 13.4112C50.4271 13.5604 50.5988 13.7521 50.7243 13.9865C50.8497 14.2185 50.9125 14.4967 50.9125 14.821V18.5H49.4778V17.7436H49.4352C49.3476 17.9141 49.2304 18.0644 49.0836 18.1946C48.9368 18.3224 48.7605 18.4231 48.5545 18.4964C48.3485 18.5675 48.1106 18.603 47.8407 18.603ZM48.274 17.5589C48.4965 17.5589 48.693 17.5152 48.8635 17.4276C49.0339 17.3376 49.1677 17.2169 49.2647 17.0653C49.3618 16.9138 49.4103 16.7422 49.4103 16.5504V15.9716C49.363 16.0024 49.2979 16.0308 49.215 16.0568C49.1345 16.0805 49.0434 16.103 48.9416 16.1243C48.8398 16.1432 48.738 16.161 48.6362 16.1776C48.5344 16.1918 48.4421 16.2048 48.3592 16.2166C48.1816 16.2427 48.0266 16.2841 47.894 16.3409C47.7614 16.3977 47.6584 16.4747 47.585 16.5717C47.5117 16.6664 47.475 16.7848 47.475 16.9268C47.475 17.1328 47.5495 17.2902 47.6987 17.3991C47.8502 17.5057 48.042 17.5589 48.274 17.5589ZM53.1621 18.5L51.6777 13.0455H53.2083L54.0534 16.7102H54.1032L54.9838 13.0455H56.486L57.3809 16.6889H57.427L58.258 13.0455H59.785L58.3042 18.5H56.7026L55.7651 15.0696H55.6976L54.7601 18.5H53.1621ZM62.9411 18.6065C62.38 18.6065 61.897 18.4929 61.4922 18.2656C61.0897 18.036 60.7796 17.7116 60.5618 17.2926C60.344 16.8712 60.2351 16.3729 60.2351 15.7976C60.2351 15.2365 60.344 14.7441 60.5618 14.3203C60.7796 13.8965 61.0862 13.5663 61.4815 13.3295C61.8793 13.0928 62.3456 12.9744 62.8807 12.9744C63.2405 12.9744 63.5755 13.0324 63.8857 13.1484C64.1982 13.2621 64.4704 13.4337 64.7024 13.6634C64.9368 13.893 65.1191 14.1818 65.2493 14.5298C65.3795 14.8755 65.4446 15.2803 65.4446 15.7443V16.1598H60.8388V15.2223H64.0206C64.0206 15.0045 63.9732 14.8116 63.8786 14.6435C63.7839 14.4754 63.6525 14.344 63.4844 14.2493C63.3187 14.1522 63.1257 14.1037 62.9055 14.1037C62.6759 14.1037 62.4723 14.157 62.2947 14.2635C62.1196 14.3677 61.9822 14.5085 61.8828 14.6861C61.7834 14.8613 61.7325 15.0566 61.7301 15.272V16.1634C61.7301 16.4332 61.7798 16.6664 61.8793 16.8629C61.9811 17.0594 62.1243 17.2109 62.3089 17.3175C62.4936 17.424 62.7126 17.4773 62.9659 17.4773C63.134 17.4773 63.2879 17.4536 63.4276 17.4062C63.5672 17.3589 63.6868 17.2879 63.7862 17.1932C63.8857 17.0985 63.9614 16.9825 64.0135 16.8452L65.4126 16.9375C65.3416 17.2737 65.196 17.5672 64.9759 17.8182C64.758 18.0668 64.4763 18.2609 64.1307 18.4006C63.7874 18.5379 63.3909 18.6065 62.9411 18.6065ZM66.4318 18.5V13.0455H67.9446V18.5H66.4318ZM67.1918 12.3423C66.9669 12.3423 66.7739 12.2678 66.6129 12.1186C66.4543 11.9671 66.375 11.786 66.375 11.5753C66.375 11.367 66.4543 11.1882 66.6129 11.0391C66.7739 10.8875 66.9669 10.8118 67.1918 10.8118C67.4167 10.8118 67.6084 10.8875 67.767 11.0391C67.928 11.1882 68.0085 11.367 68.0085 11.5753C68.0085 11.786 67.928 11.9671 67.767 12.1186C67.6084 12.2678 67.4167 12.3423 67.1918 12.3423Z" fill="white"/>
<defs>
<clipPath id="clip0_471_5078">
<rect width="28" height="28" fill="white" transform="translate(0 1)"/>
</clipPath>
</defs>
</svg>
