<svg width="49" height="30" viewBox="0 0 49 30" fill="none" xmlns="http://www.w3.org/2000/svg">
<path d="M25.4803 21.8106C25.0938 22.6757 24.7579 23.5454 24.3254 24.3644C23.6167 25.7173 22.7608 26.9781 21.7347 28.1101C21.0951 28.8141 20.3451 29.3663 19.3787 29.5227C18.5229 29.6654 17.7084 29.4905 16.9123 29.173C16.2819 28.9245 15.6469 28.6714 14.9889 28.5242C13.9121 28.2849 12.8492 28.4322 11.8231 28.8371C11.3721 29.0166 10.9212 29.2052 10.4656 29.3709C9.08516 29.8724 7.85196 29.6056 6.77521 28.6116C5.61102 27.5395 4.69532 26.2695 3.92227 24.912C2.22892 21.944 1.28561 18.7644 1.46507 15.3179C1.58471 13.0033 2.32555 10.9234 4.04651 9.2853C5.30272 8.0843 6.81202 7.42629 8.55599 7.32966C9.52231 7.27444 10.4196 7.55973 11.3031 7.90024C11.777 8.0843 12.2464 8.26376 12.725 8.44322C13.3093 8.66409 13.8937 8.65949 14.4781 8.44322C15.311 8.13032 16.1393 7.78981 16.9952 7.53212C19.7192 6.70385 22.7885 7.69778 24.4726 9.92491C24.5324 10.0031 24.583 10.0906 24.6383 10.1688C20.0874 13.0171 20.5061 19.5605 25.4849 21.8106H25.4803Z" fill="white"/>
<path d="M19.2494 0.14675C19.7004 3.3448 16.8014 7.15024 13.4193 6.89716C12.6325 4.24209 16.3551 -0.069521 19.2494 0.14675Z" fill="white"/>
<path d="M31.6037 18.5V13.0455H33.1165V18.5H31.6037ZM32.3636 12.3423C32.1387 12.3423 31.9458 12.2678 31.7848 12.1186C31.6262 11.9671 31.5469 11.786 31.5469 11.5753C31.5469 11.367 31.6262 11.1882 31.7848 11.0391C31.9458 10.8875 32.1387 10.8118 32.3636 10.8118C32.5885 10.8118 32.7803 10.8875 32.9389 11.0391C33.0999 11.1882 33.1804 11.367 33.1804 11.5753C33.1804 11.786 33.0999 11.9671 32.9389 12.1186C32.7803 12.2678 32.5885 12.3423 32.3636 12.3423ZM41.04 14.8636C41.04 15.6567 40.8896 16.3314 40.589 16.8878C40.2907 17.4441 39.8835 17.8691 39.3674 18.1626C38.8536 18.4538 38.276 18.5994 37.6344 18.5994C36.9881 18.5994 36.4081 18.4527 35.8944 18.1591C35.3806 17.8655 34.9746 17.4406 34.6763 16.8842C34.378 16.3279 34.2289 15.6544 34.2289 14.8636C34.2289 14.0705 34.378 13.3958 34.6763 12.8395C34.9746 12.2831 35.3806 11.8594 35.8944 11.5682C36.4081 11.2746 36.9881 11.1278 37.6344 11.1278C38.276 11.1278 38.8536 11.2746 39.3674 11.5682C39.8835 11.8594 40.2907 12.2831 40.589 12.8395C40.8896 13.3958 41.04 14.0705 41.04 14.8636ZM39.481 14.8636C39.481 14.3499 39.4041 13.9167 39.2502 13.5639C39.0987 13.2112 38.8844 12.9437 38.6074 12.7614C38.3304 12.5791 38.0061 12.4879 37.6344 12.4879C37.2627 12.4879 36.9384 12.5791 36.6614 12.7614C36.3844 12.9437 36.169 13.2112 36.0151 13.5639C35.8636 13.9167 35.7878 14.3499 35.7878 14.8636C35.7878 15.3774 35.8636 15.8106 36.0151 16.1634C36.169 16.5161 36.3844 16.7836 36.6614 16.9659C36.9384 17.1482 37.2627 17.2393 37.6344 17.2393C38.0061 17.2393 38.3304 17.1482 38.6074 16.9659C38.8844 16.7836 39.0987 16.5161 39.2502 16.1634C39.4041 15.8106 39.481 15.3774 39.481 14.8636ZM46.1243 13.3189C46.0959 13.0324 45.974 12.8099 45.7585 12.6513C45.5431 12.4927 45.2507 12.4134 44.8814 12.4134C44.6304 12.4134 44.4186 12.4489 44.2457 12.5199C44.0729 12.5885 43.9403 12.6844 43.848 12.8075C43.758 12.9306 43.7131 13.0703 43.7131 13.2266C43.7083 13.3568 43.7356 13.4704 43.7947 13.5675C43.8563 13.6645 43.9403 13.7486 44.0469 13.8196C44.1534 13.8883 44.2765 13.9486 44.4162 14.0007C44.5559 14.0504 44.705 14.093 44.8636 14.1286L45.517 14.2848C45.8343 14.3558 46.1255 14.4505 46.3906 14.5689C46.6558 14.6873 46.8854 14.8329 47.0795 15.0057C47.2737 15.1785 47.424 15.3821 47.5305 15.6165C47.6394 15.8509 47.6951 16.1196 47.6974 16.4226C47.6951 16.8677 47.5814 17.2536 47.3565 17.5803C47.134 17.9046 46.812 18.1567 46.3906 18.3366C45.9716 18.5142 45.4661 18.603 44.8743 18.603C44.2872 18.603 43.7758 18.513 43.3402 18.3331C42.907 18.1532 42.5684 17.8868 42.3246 17.5341C42.0831 17.179 41.9564 16.7398 41.9446 16.2166H43.4325C43.4491 16.4605 43.5189 16.6641 43.642 16.8274C43.7675 16.9884 43.9344 17.1103 44.1428 17.1932C44.3535 17.2737 44.5914 17.3139 44.8565 17.3139C45.117 17.3139 45.343 17.276 45.5348 17.2003C45.7289 17.1245 45.8793 17.0192 45.9858 16.8842C46.0923 16.7493 46.1456 16.5942 46.1456 16.419C46.1456 16.2557 46.0971 16.1184 46 16.0071C45.9053 15.8958 45.7656 15.8011 45.581 15.723C45.3987 15.6449 45.175 15.5739 44.9098 15.5099L44.1179 15.3111C43.5047 15.1619 43.0206 14.9287 42.6655 14.6115C42.3104 14.2943 42.134 13.867 42.1364 13.3295C42.134 12.8892 42.2512 12.5045 42.4879 12.1754C42.727 11.8464 43.0549 11.5895 43.4716 11.4048C43.8883 11.2202 44.3617 11.1278 44.892 11.1278C45.4318 11.1278 45.9029 11.2202 46.3054 11.4048C46.7102 11.5895 47.0251 11.8464 47.25 12.1754C47.4749 12.5045 47.5909 12.8857 47.598 13.3189H46.1243Z" fill="white"/>
</svg>
