<svg width="74" height="30" viewBox="0 0 74 30" fill="none" xmlns="http://www.w3.org/2000/svg">
<path d="M14.4136 15.3623L3.53516 26.9092C3.92263 27.7325 4.75571 28.275 5.68566 28.275C6.11189 28.275 6.52843 28.1636 6.89169 27.9457L6.93528 27.9214L19.3588 20.7531L14.4088 15.3671L14.4136 15.3623Z" fill="white"/>
<path d="M27.2228 14.8345C27.2228 13.9627 26.7481 13.1635 25.9828 12.7469L25.9199 12.7082L20.718 9.69556L15.332 14.4906L20.7761 19.9298L25.9489 16.9462C26.7433 16.5152 27.2228 15.7112 27.2228 14.8393V14.8345Z" fill="white"/>
<path d="M13.662 14.5051L3.30664 4.69702V24.8556L13.662 14.5051Z" fill="white"/>
<path d="M19.3008 8.86738L6.93051 1.69419C6.54788 1.46655 6.12165 1.34546 5.69058 1.34546C4.76548 1.34546 3.93724 1.88309 3.54492 2.69195L14.5106 13.6576L19.3056 8.86738H19.3008Z" fill="white"/>
<path d="M36.6982 18.5H35.0504L37.5611 11.2273H39.5426L42.0497 18.5H40.402L38.5803 12.8892H38.5234L36.6982 18.5ZM36.5952 15.6413H40.4872V16.8416H36.5952V15.6413ZM44.4094 15.3466V18.5H42.8967V13.0455H44.3384V14.0078H44.4023C44.5231 13.6906 44.7255 13.4396 45.0096 13.255C45.2937 13.0679 45.6381 12.9744 46.043 12.9744C46.4218 12.9744 46.752 13.0573 47.0337 13.223C47.3155 13.3887 47.5344 13.6255 47.6907 13.9332C47.8469 14.2386 47.9251 14.6032 47.9251 15.027V18.5H46.4123V15.2969C46.4147 14.9631 46.3294 14.7027 46.1566 14.5156C45.9838 14.3262 45.7459 14.2315 45.4428 14.2315C45.2392 14.2315 45.0593 14.2753 44.9031 14.3629C44.7492 14.4505 44.6284 14.5784 44.5408 14.7464C44.4556 14.9122 44.4118 15.1122 44.4094 15.3466ZM51.1273 18.5888C50.713 18.5888 50.3378 18.4822 50.0016 18.2692C49.6678 18.0537 49.4026 17.7377 49.2061 17.321C49.012 16.902 48.915 16.3883 48.915 15.7798C48.915 15.1548 49.0156 14.6352 49.2168 14.2209C49.418 13.8042 49.6855 13.4929 50.0194 13.2869C50.3555 13.0786 50.7237 12.9744 51.1238 12.9744C51.4292 12.9744 51.6837 13.0265 51.8873 13.1307C52.0932 13.2325 52.2589 13.3603 52.3844 13.5142C52.5123 13.6657 52.6093 13.8149 52.6756 13.9616H52.7218V11.2273H54.231V18.5H52.7395V17.6264H52.6756C52.6046 17.7779 52.504 17.9283 52.3738 18.0774C52.2459 18.2242 52.079 18.3461 51.873 18.4432C51.6694 18.5402 51.4209 18.5888 51.1273 18.5888ZM51.6067 17.3849C51.8506 17.3849 52.0565 17.3187 52.2246 17.1861C52.3951 17.0511 52.5253 16.8629 52.6152 16.6214C52.7076 16.38 52.7537 16.0971 52.7537 15.7727C52.7537 15.4484 52.7087 15.1667 52.6188 14.9276C52.5288 14.6884 52.3986 14.5038 52.2282 14.3736C52.0577 14.2434 51.8506 14.1783 51.6067 14.1783C51.3581 14.1783 51.1486 14.2457 50.9782 14.3807C50.8077 14.5156 50.6787 14.7027 50.5911 14.9418C50.5035 15.1809 50.4597 15.4579 50.4597 15.7727C50.4597 16.09 50.5035 16.3705 50.5911 16.6143C50.681 16.8558 50.8101 17.0452 50.9782 17.1825C51.1486 17.3175 51.3581 17.3849 51.6067 17.3849ZM55.4748 18.5V13.0455H56.9414V13.9972H56.9982C57.0977 13.6586 57.2646 13.4029 57.4989 13.2301C57.7333 13.0549 58.0032 12.9673 58.3086 12.9673C58.3844 12.9673 58.466 12.9721 58.5536 12.9815C58.6412 12.991 58.7182 13.004 58.7844 13.0206V14.3629C58.7134 14.3416 58.6152 14.3227 58.4897 14.3061C58.3642 14.2895 58.2494 14.2812 58.1452 14.2812C57.9227 14.2812 57.7238 14.3298 57.5487 14.4268C57.3758 14.5215 57.2385 14.6541 57.1367 14.8246C57.0373 14.995 56.9876 15.1915 56.9876 15.4141V18.5H55.4748ZM61.7772 18.6065C61.2256 18.6065 60.7485 18.4893 60.3461 18.255C59.946 18.0182 59.637 17.6892 59.4192 17.2678C59.2014 16.844 59.0925 16.3527 59.0925 15.794C59.0925 15.2306 59.2014 14.7382 59.4192 14.3168C59.637 13.893 59.946 13.5639 60.3461 13.3295C60.7485 13.0928 61.2256 12.9744 61.7772 12.9744C62.3288 12.9744 62.8046 13.0928 63.2047 13.3295C63.6072 13.5639 63.9173 13.893 64.1351 14.3168C64.3529 14.7382 64.4618 15.2306 64.4618 15.794C64.4618 16.3527 64.3529 16.844 64.1351 17.2678C63.9173 17.6892 63.6072 18.0182 63.2047 18.255C62.8046 18.4893 62.3288 18.6065 61.7772 18.6065ZM61.7843 17.4347C62.0352 17.4347 62.2447 17.3636 62.4128 17.2216C62.5809 17.0772 62.7076 16.8807 62.7928 16.6321C62.8804 16.3835 62.9242 16.1006 62.9242 15.7834C62.9242 15.4661 62.8804 15.1832 62.7928 14.9347C62.7076 14.6861 62.5809 14.4896 62.4128 14.3452C62.2447 14.2008 62.0352 14.1286 61.7843 14.1286C61.531 14.1286 61.3179 14.2008 61.1451 14.3452C60.9746 14.4896 60.8456 14.6861 60.758 14.9347C60.6728 15.1832 60.6301 15.4661 60.6301 15.7834C60.6301 16.1006 60.6728 16.3835 60.758 16.6321C60.8456 16.8807 60.9746 17.0772 61.1451 17.2216C61.3179 17.3636 61.531 17.4347 61.7843 17.4347ZM65.4455 18.5V13.0455H66.9583V18.5H65.4455ZM66.2054 12.3423C65.9805 12.3423 65.7876 12.2678 65.6266 12.1186C65.468 11.9671 65.3887 11.786 65.3887 11.5753C65.3887 11.367 65.468 11.1882 65.6266 11.0391C65.7876 10.8875 65.9805 10.8118 66.2054 10.8118C66.4303 10.8118 66.6221 10.8875 66.7807 11.0391C66.9417 11.1882 67.0222 11.367 67.0222 11.5753C67.0222 11.786 66.9417 11.9671 66.7807 12.1186C66.6221 12.2678 66.4303 12.3423 66.2054 12.3423ZM70.18 18.5888C69.7657 18.5888 69.3905 18.4822 69.0543 18.2692C68.7205 18.0537 68.4554 17.7377 68.2589 17.321C68.0647 16.902 67.9677 16.3883 67.9677 15.7798C67.9677 15.1548 68.0683 14.6352 68.2695 14.2209C68.4708 13.8042 68.7383 13.4929 69.0721 13.2869C69.4083 13.0786 69.7764 12.9744 70.1765 12.9744C70.4819 12.9744 70.7364 13.0265 70.94 13.1307C71.146 13.2325 71.3117 13.3603 71.4371 13.5142C71.565 13.6657 71.6621 13.8149 71.7283 13.9616H71.7745V11.2273H73.2837V18.5H71.7923V17.6264H71.7283C71.6573 17.7779 71.5567 17.9283 71.4265 18.0774C71.2987 18.2242 71.1317 18.3461 70.9258 18.4432C70.7222 18.5402 70.4736 18.5888 70.18 18.5888ZM70.6594 17.3849C70.9033 17.3849 71.1093 17.3187 71.2773 17.1861C71.4478 17.0511 71.578 16.8629 71.668 16.6214C71.7603 16.38 71.8065 16.0971 71.8065 15.7727C71.8065 15.4484 71.7615 15.1667 71.6715 14.9276C71.5816 14.6884 71.4513 14.5038 71.2809 14.3736C71.1104 14.2434 70.9033 14.1783 70.6594 14.1783C70.4109 14.1783 70.2013 14.2457 70.0309 14.3807C69.8604 14.5156 69.7314 14.7027 69.6438 14.9418C69.5562 15.1809 69.5124 15.4579 69.5124 15.7727C69.5124 16.09 69.5562 16.3705 69.6438 16.6143C69.7338 16.8558 69.8628 17.0452 70.0309 17.1825C70.2013 17.3175 70.4109 17.3849 70.6594 17.3849Z" fill="white"/>
</svg>
