<svg width="138" height="24" viewBox="0 0 138 24" fill="none" xmlns="http://www.w3.org/2000/svg">
<path fill-rule="evenodd" clip-rule="evenodd" d="M13.1815 20.2334H7.14498V23.7182H13.4926V20.2334H13.1815ZM15.8602 17.5547L16.9393 16.4756C20.5828 12.8321 20.5828 6.8781 16.9393 3.23459C16.2791 2.57444 15.5428 2.0349 14.7557 1.60961C14.8192 1.7683 14.8763 1.92699 14.9334 2.09203C15.5301 3.83761 15.8983 6.18621 15.8983 8.73794C15.8983 11.2897 15.5301 13.6383 14.9334 15.3839C14.6478 16.2154 14.2923 16.9454 13.8734 17.5547H15.8602ZM7.14498 17.5547C6.72604 16.9454 6.37055 16.2154 6.08491 15.3839C5.48823 13.6383 5.1201 11.2897 5.1201 8.73794C5.1201 6.18621 5.48823 3.83761 6.08491 2.09203C6.16742 1.84447 6.26263 1.60326 6.35785 1.37475C5.39302 1.81908 4.49166 2.44114 3.69821 3.23459C0.0546984 6.8781 0.0546984 12.8321 3.69821 16.4756L4.77731 17.5547H7.14498ZM10.5917 0.511475H10.4648C8.92864 0.568603 7.69086 4.23116 7.69086 8.73794C7.69086 13.2447 8.95403 16.9708 10.5092 16.9708C12.0643 16.9708 13.3275 13.2828 13.3275 8.73794C13.3275 4.19307 12.1151 0.644774 10.598 0.511475H10.5917Z" fill="white"/>
<path fill-rule="evenodd" clip-rule="evenodd" d="M23.8259 6.6748H32.941V8.67428H29.5768V17.5292H27.1901V8.67428H23.8259V6.6748ZM76.7394 6.68115H79.1261V17.5355H76.7394V6.68115ZM71.1408 6.68115C72.0167 6.68115 72.7531 6.83984 73.3371 7.15722C73.9211 7.4746 74.359 7.89353 74.6447 8.41403C74.9366 8.93453 75.0763 9.50582 75.0763 10.1279C75.0763 10.5532 75.0001 10.9658 74.8541 11.3784C74.7018 11.7846 74.4733 12.1591 74.1559 12.4955C73.8448 12.8256 73.4449 13.0922 72.9498 13.289L75.2985 17.5419H72.6452L70.5822 13.5873H68.7986V17.5419H66.4119V6.68749H71.1408V6.68115ZM72.6452 10.1215C72.6452 9.6772 72.5119 9.32808 72.2516 9.06783C71.985 8.80758 71.5788 8.68064 71.0202 8.68064H68.8049V11.5815H71.0202C71.3947 11.5815 71.6994 11.5243 71.9342 11.4101C72.1691 11.2958 72.3531 11.1308 72.4674 10.9086C72.588 10.6865 72.6452 10.4262 72.6452 10.1279V10.1215ZM62.616 10.185C62.3177 9.63912 61.9368 9.23921 61.4734 8.98531C61.0164 8.73141 60.5022 8.60447 59.9309 8.60447C59.3343 8.60447 58.7884 8.75681 58.3123 9.0615C57.8299 9.36618 57.4554 9.78512 57.1825 10.312C56.9095 10.8388 56.7698 11.4355 56.7698 12.1083C56.7698 12.7812 56.9032 13.4223 57.1761 13.9428C57.4427 14.4633 57.8236 14.8759 58.306 15.1679C58.7948 15.4599 59.3596 15.6122 60.0135 15.6122C60.4197 15.6122 60.7879 15.5424 61.1306 15.4027C61.4734 15.2631 61.7781 15.0663 62.0447 14.8187C62.3113 14.5712 62.5398 14.2855 62.7239 13.9682V13.4731H59.9309V11.5815H64.971V14.4061C64.7234 14.9774 64.3616 15.5043 63.8855 15.993C63.4095 16.4818 62.8381 16.8817 62.1653 17.1864C61.4924 17.4911 60.7307 17.6434 59.8738 17.6434C59.0677 17.6434 58.3314 17.5101 57.6585 17.2435C56.9857 16.9769 56.4017 16.5897 55.9066 16.0946C55.4115 15.5995 55.0243 15.0092 54.7514 14.3363C54.4784 13.6571 54.3388 12.9208 54.3388 12.1083C54.3388 11.2958 54.4784 10.5595 54.7514 9.88667C55.0243 9.20748 55.4051 8.62351 55.9002 8.1284C56.3953 7.63329 56.973 7.25244 57.6458 6.97949C58.3187 6.71289 59.055 6.57959 59.8611 6.57959C60.6165 6.57959 61.3274 6.70019 61.9939 6.93505C62.6604 7.16991 63.2444 7.51903 63.7395 7.96336C64.2346 8.41404 64.6028 8.95992 64.8377 9.60103L62.6224 10.1914L62.616 10.185ZM52.9105 6.68115V17.5355H50.4921L46.0869 10.6166V17.5355H43.7002V6.68115H46.1187L50.5048 13.6317V6.68115H52.9105ZM42.2593 8.68064H36.7687V11.1625H40.8756V13.0541H36.7687V15.536H42.2593V17.5355H34.382V6.68115H42.2593V8.68064Z" fill="white"/>
<path fill-rule="evenodd" clip-rule="evenodd" d="M98.8292 12.8387C99.2926 12.6609 99.6798 12.4261 99.9782 12.1277C100.277 11.8294 100.499 11.4867 100.638 11.1058C100.778 10.7249 100.848 10.3187 100.848 9.89341C100.848 9.29673 100.714 8.75083 100.442 8.27476C100.169 7.79869 99.7687 7.41151 99.2228 7.11952C98.6769 6.82753 97.9851 6.68787 97.1345 6.68787H93.3196V17.5422H94.5573V13.1053H96.9758L99.629 17.5422H101.038L98.2453 12.991C98.4484 12.9529 98.6451 12.9085 98.8229 12.845L98.8292 12.8387ZM94.5637 7.76696H97.1408C98.0105 7.76696 98.6325 7.95739 99.0197 8.33824C99.4005 8.7191 99.591 9.2396 99.591 9.88705C99.591 10.3123 99.5085 10.6805 99.3371 11.0042C99.1657 11.3216 98.9054 11.5755 98.5436 11.7469C98.1882 11.9246 97.7247 12.0135 97.1535 12.0135H94.5637V7.76696Z" fill="white"/>
<path fill-rule="evenodd" clip-rule="evenodd" d="M83.5193 7.76683H86.9724V17.5357H88.2165V7.76683H91.6569V6.6814H83.5193V7.76683Z" fill="white"/>
<path fill-rule="evenodd" clip-rule="evenodd" d="M121.661 17.5357H128.777V16.4503H122.899V12.5592H127.317V11.4738H122.899V7.76683H128.777V6.6814H121.661V17.5357Z" fill="white"/>
<path fill-rule="evenodd" clip-rule="evenodd" d="M115.39 16.2218L111.899 6.6814H110.578L114.641 17.5357H116.069L120.195 6.6814H118.875L115.39 16.2218Z" fill="white"/>
<path fill-rule="evenodd" clip-rule="evenodd" d="M132.041 16.4503V6.6814H130.803V17.5357H137.113V16.4503H132.041Z" fill="white"/>
<path fill-rule="evenodd" clip-rule="evenodd" d="M110.433 17.5357H111.69L107.736 6.6814H105.501L101.534 17.5357H102.791L103.838 14.6793H109.399L110.433 17.5357ZM104.232 13.5939L106.371 7.76047H106.885L109.005 13.5939H104.238H104.232Z" fill="white"/>
</svg>
