<svg width="145" height="27" viewBox="0 0 145 27" fill="none" xmlns="http://www.w3.org/2000/svg">
<path fill-rule="evenodd" clip-rule="evenodd" d="M4.06157 3.96484C8.16052 -0.134112 14.8588 -0.134112 18.9577 3.96484C20.5502 5.55729 21.5214 7.53535 21.8784 9.60625H17.5581C17.2582 8.58508 16.7012 7.67817 15.9728 6.94979C14.8231 5.80722 13.2521 5.10026 11.5168 5.10026C9.78153 5.10026 8.21052 5.80722 7.06081 6.95692C6.33242 7.68531 5.7754 8.59222 5.47548 9.61339H1.15517C1.51222 7.54249 2.48342 5.55728 4.07586 3.97197L4.06157 3.96484ZM5.46123 13.2125C5.76115 14.2265 6.31813 15.1405 7.04651 15.8689C8.18908 17.0115 9.76725 17.7185 11.5097 17.7185C13.2521 17.7185 14.8302 17.0115 15.9728 15.8689C16.7012 15.1405 17.2582 14.2265 17.5581 13.2125H21.8784C21.5214 15.2834 20.5502 17.2686 18.9577 18.8539L11.5097 26.302L4.06157 18.8539C2.46912 17.2614 1.49792 15.2834 1.14087 13.2125H5.46123ZM11.5097 8.03522C9.64585 8.03522 8.13196 9.54912 8.13196 11.4129C8.13196 13.2767 9.64585 14.7906 11.5097 14.7906C13.3735 14.7906 14.8873 13.2767 14.8873 11.4129C14.8873 9.54912 13.3735 8.03522 11.5097 8.03522Z" fill="white"/>
<path fill-rule="evenodd" clip-rule="evenodd" d="M26.5559 7.48535H36.8104V9.73477H33.0257V19.6965H30.3406V9.73477H26.5559V7.48535ZM86.0835 7.49249H88.7686V19.7037H86.0835V7.49249ZM79.7851 7.49249C80.7706 7.49249 81.599 7.67102 82.256 8.02807C82.9129 8.38512 83.4056 8.85643 83.727 9.44199C84.0555 10.0276 84.2126 10.6702 84.2126 11.3701C84.2126 11.8485 84.1268 12.3127 83.9626 12.7769C83.7912 13.2339 83.5341 13.6552 83.1771 14.0337C82.8272 14.405 82.3773 14.7049 81.8203 14.9263L84.4625 19.7108H81.4775L79.1567 15.2619H77.1501V19.7108H74.4651V7.49963H79.7851V7.49249ZM81.4775 11.3629C81.4775 10.8631 81.3276 10.4703 81.0348 10.1775C80.7349 9.88474 80.2779 9.74191 79.6495 9.74191H77.1573V13.0054H79.6495C80.0708 13.0054 80.4135 12.9411 80.6777 12.8126C80.942 12.684 81.149 12.4984 81.2776 12.2484C81.4132 11.9985 81.4775 11.7057 81.4775 11.3701V11.3629ZM70.1948 11.4343C69.8591 10.8202 69.4306 10.3703 68.9093 10.0847C68.3952 9.79905 67.8167 9.65623 67.174 9.65623C66.5028 9.65623 65.8887 9.82761 65.3531 10.1704C64.8104 10.5131 64.3891 10.9845 64.082 11.5772C63.7749 12.1699 63.6178 12.8411 63.6178 13.5981C63.6178 14.355 63.7678 15.0763 64.0749 15.6618C64.3748 16.2474 64.8033 16.7116 65.346 17.04C65.8958 17.3685 66.5313 17.5399 67.2669 17.5399C67.7239 17.5399 68.1381 17.4614 68.5237 17.3043C68.9093 17.1472 69.2521 16.9329 69.5521 16.6473C69.852 16.3688 70.109 16.0474 70.3161 15.6904V15.1334H67.174V13.0054H72.8441V16.1831C72.5656 16.8258 72.1585 17.4185 71.623 17.9684C71.0874 18.5182 70.4446 18.9681 69.6877 19.3109C68.9307 19.6537 68.0738 19.825 67.1098 19.825C66.2029 19.825 65.3745 19.6751 64.6176 19.368C63.8606 19.0681 63.2036 18.6325 62.6466 18.0755C62.0896 17.5185 61.6541 16.8544 61.347 16.0974C61.04 15.3333 60.8828 14.505 60.8828 13.5909C60.8828 12.6769 61.04 11.8485 61.347 11.0916C61.6541 10.3275 62.0825 9.67051 62.6395 9.11351C63.1894 8.55651 63.8463 8.12805 64.6033 7.82098C65.3602 7.52106 66.1886 7.37109 67.0955 7.37109C67.9453 7.37109 68.7451 7.50677 69.4949 7.77099C70.2447 8.03521 70.9016 8.42797 71.4586 8.92784C72.0156 9.43485 72.4299 10.049 72.6941 10.7702L70.2019 11.4343H70.1948ZM59.2761 7.49249V19.7037H56.5553L51.5995 11.9199V19.7037H48.9145V7.49249H51.6352L56.5696 15.3119V7.49249H59.2761ZM47.2934 9.74191H41.1165V12.5341H45.7367V14.6621H41.1165V17.4542H47.2934V19.7037H38.4314V7.49249H47.2934V9.74191Z" fill="white"/>
<path fill-rule="evenodd" clip-rule="evenodd" d="M104.001 11.1561C103.558 10.2849 102.972 9.64218 102.237 9.228C101.501 8.81382 100.687 8.60674 99.7947 8.60674C98.9021 8.60674 98.1166 8.80669 97.4025 9.21372C96.6955 9.62076 96.1385 10.1992 95.7243 10.9419C95.3173 11.6845 95.1102 12.57 95.1102 13.5912C95.1102 14.6123 95.3173 15.4835 95.7243 16.2262C96.1314 16.9689 96.6884 17.5473 97.4025 17.9543C98.1094 18.3614 98.9092 18.5685 99.7947 18.5685C100.459 18.5685 101.073 18.4542 101.644 18.2257C102.215 17.9972 102.708 17.6758 103.13 17.2474C103.551 16.8261 103.865 16.3119 104.086 15.7192V14.3053H99.9018V13.1699H105.5V15.7835C105.236 16.5618 104.829 17.2545 104.279 17.8615C103.729 18.4685 103.072 18.9398 102.308 19.2897C101.544 19.6396 100.702 19.811 99.7947 19.811C98.9306 19.811 98.1308 19.661 97.3953 19.354C96.6598 19.0541 96.01 18.6256 95.4601 18.0686C94.9103 17.5187 94.4746 16.8618 94.1676 16.0977C93.8605 15.3336 93.7034 14.4981 93.7034 13.5769C93.7034 12.6557 93.8605 11.8202 94.1676 11.0561C94.4746 10.292 94.9031 9.63504 95.4601 9.08519C96.01 8.53533 96.6598 8.10686 97.3953 7.7998C98.1308 7.49988 98.9306 7.34277 99.7947 7.34277C100.594 7.34277 101.351 7.47131 102.051 7.73553C102.758 7.99975 103.38 8.37822 103.929 8.87095C104.479 9.36368 104.908 9.96353 105.222 10.6776L104.001 11.1347V11.1561ZM107.464 7.49273H108.857V15.205C108.857 16.0048 109 16.6618 109.292 17.1617C109.585 17.6616 109.978 18.0258 110.47 18.2614C110.963 18.4971 111.527 18.6113 112.156 18.6113C112.784 18.6113 113.327 18.4971 113.813 18.2614C114.298 18.0258 114.691 17.6616 114.984 17.1617C115.276 16.6618 115.419 16.012 115.419 15.205V7.49273H116.812V15.1836C116.812 15.9834 116.683 16.6761 116.433 17.2617C116.183 17.8401 115.841 18.3257 115.398 18.7042C114.955 19.0826 114.455 19.3611 113.898 19.5468C113.341 19.7325 112.756 19.8253 112.134 19.8253C111.299 19.8253 110.521 19.661 109.814 19.3254C109.107 18.9969 108.535 18.4828 108.107 17.7972C107.678 17.1117 107.464 16.2405 107.464 15.1836V7.49273ZM119.354 7.49273H120.746V19.7039H119.354V7.49273ZM127.402 7.49273C128.752 7.49273 129.908 7.74267 130.865 8.2354C131.822 8.72813 132.565 9.4351 133.079 10.3563C133.593 11.2775 133.857 12.3701 133.857 13.634C133.857 14.898 133.6 15.9691 133.079 16.876C132.565 17.783 131.822 18.4828 130.865 18.9684C129.908 19.454 128.752 19.7039 127.402 19.7039H123.374V7.49273H127.402ZM127.402 18.4828C129.066 18.4828 130.323 18.0615 131.172 17.2117C132.022 16.3619 132.443 15.1693 132.443 13.634C132.443 12.0987 132.022 10.8776 131.172 10.0135C130.323 9.14946 129.066 8.71385 127.402 8.71385H124.767V18.4828H127.402ZM143.755 8.71385H137.142V12.8842H142.112V14.1053H137.142V18.4828H143.755V19.7039H135.75V7.49273H143.755V8.71385Z" fill="white"/>
</svg>
