<svg width="152" height="27" viewBox="0 0 152 27" fill="none" xmlns="http://www.w3.org/2000/svg">
<g clip-path="url(#clip0_129_10643)">
<path fill-rule="evenodd" clip-rule="evenodd" d="M60.4358 9.7591H54.2954V12.5447H58.8932V14.6684H54.2954V17.454H60.4358V19.7005H51.622V7.51263H60.4358V9.7591ZM72.3525 7.51263V19.7035H69.6464L64.7203 11.9277V19.7035H62.0499V7.51263H64.7561L69.6643 15.3214V7.51263H72.3525ZM83.2131 11.4484C82.8789 10.8344 82.4523 10.3821 81.9391 10.1006C81.4229 9.81601 80.85 9.67224 80.2115 9.67224C79.5402 9.67224 78.9375 9.84297 78.3975 10.1874C77.8604 10.5289 77.4367 10.9962 77.1324 11.5892C76.8251 12.1823 76.6729 12.8532 76.6729 13.6081C76.6729 14.3629 76.8221 15.0847 77.1234 15.6718C77.4248 16.2589 77.8455 16.7172 78.3885 17.0467C78.9315 17.3761 79.5671 17.5439 80.2951 17.5439C80.7456 17.5439 81.1633 17.466 81.5452 17.3072C81.9271 17.1515 82.2673 16.9328 82.5686 16.6543C82.87 16.3757 83.1236 16.0552 83.3325 15.6958V15.1357H80.2085V13.012H85.8477V16.184C85.5702 16.822 85.1674 17.4181 84.6333 17.9692C84.1022 18.5203 83.4608 18.9666 82.7059 19.3111C81.954 19.6526 81.0977 19.8263 80.1399 19.8263C79.2389 19.8263 78.4094 19.6765 77.6575 19.374C76.9056 19.0715 76.2522 18.6431 75.6972 18.086C75.1423 17.5289 74.7126 16.8699 74.4053 16.1091C74.098 15.3483 73.9458 14.5156 73.9458 13.6111C73.9458 12.7065 74.098 11.8738 74.4053 11.113C74.7126 10.3522 75.1393 9.6932 75.6883 9.13608C76.2373 8.57895 76.8877 8.15063 77.6396 7.8481C78.3915 7.54558 79.218 7.39581 80.119 7.39581C80.9634 7.39581 81.7571 7.5306 82.506 7.79718C83.2519 8.06376 83.9023 8.45016 84.4573 8.95636C85.0123 9.46257 85.424 10.0736 85.6896 10.7925L83.2101 11.4544L83.2131 11.4484ZM94.4377 11.3796C94.4377 10.8793 94.2915 10.484 93.9961 10.1964C93.7007 9.90587 93.2412 9.7621 92.6176 9.7621H90.1352V13.018H92.6176C93.0324 13.018 93.3755 12.9551 93.641 12.8263C93.9066 12.6975 94.1065 12.5088 94.2408 12.2602C94.375 12.0116 94.4407 11.718 94.4407 11.3796H94.4377ZM92.7549 7.51263C93.7365 7.51263 94.557 7.68935 95.2105 8.0428C95.8639 8.39624 96.3532 8.8665 96.6754 9.45358C97.0007 10.0407 97.1618 10.6817 97.1618 11.3766C97.1618 11.8528 97.0782 12.3201 96.9111 12.7784C96.7441 13.2366 96.4845 13.656 96.1294 14.0334C95.7803 14.4048 95.3298 14.7013 94.7808 14.923L97.4064 19.7035H94.4407L92.1313 15.2615H90.1382V19.7035H87.4678V7.51263H92.7579H92.7549ZM99.0176 7.51263H101.688V19.7035H99.0176V7.51263ZM39.8096 7.50364H50.0108V9.75012H46.2454V19.6945H43.572V9.75012H39.8066V7.50364H39.8096Z" fill="white"/>
<path fill-rule="evenodd" clip-rule="evenodd" d="M109.031 15.2825L111.424 8.73178H111.997L114.369 15.2825H109.034H109.031ZM110.451 7.5127L106.009 19.7065H107.414L108.584 16.5016H114.808L115.968 19.7065H117.374L112.949 7.5127H110.451Z" fill="white"/>
<path fill-rule="evenodd" clip-rule="evenodd" d="M129.499 8.73178H133.369V19.7065H134.759V8.73178H138.611V7.5127H129.499V8.73178Z" fill="white"/>
<path fill-rule="evenodd" clip-rule="evenodd" d="M149.445 16.2679C149.039 17.0168 148.49 17.5949 147.795 18.0022C147.099 18.4096 146.321 18.6103 145.452 18.6103C144.584 18.6103 143.784 18.4066 143.083 18.0022C142.385 17.5949 141.83 17.0168 141.427 16.2679C141.022 15.5191 140.819 14.6325 140.819 13.6111C140.819 12.5897 141.022 11.6851 141.427 10.9363C141.833 10.1875 142.385 9.61239 143.083 9.21102C143.784 8.80965 144.572 8.60897 145.452 8.60897C146.333 8.60897 147.102 8.80965 147.795 9.21102C148.49 9.61239 149.039 10.1875 149.445 10.9363C149.85 11.6851 150.05 12.5777 150.05 13.6111C150.05 14.6445 149.847 15.5191 149.445 16.2679ZM151.014 11.0951C150.707 10.3343 150.283 9.67829 149.74 9.12716C149.197 8.57602 148.558 8.14769 147.821 7.84816C147.087 7.54564 146.297 7.39587 145.452 7.39587C144.608 7.39587 143.802 7.54564 143.065 7.84816C142.331 8.15069 141.687 8.57602 141.138 9.12716C140.589 9.67829 140.159 10.3343 139.855 11.0951C139.548 11.8559 139.396 12.6946 139.396 13.6141C139.396 14.5337 139.548 15.3694 139.855 16.1302C140.162 16.891 140.589 17.5469 141.138 18.0981C141.687 18.6492 142.328 19.0775 143.065 19.3801C143.799 19.6826 144.596 19.8323 145.452 19.8323C146.309 19.8323 147.087 19.6826 147.821 19.3801C148.555 19.0775 149.194 18.6522 149.74 18.0981C150.283 17.5469 150.71 16.891 151.014 16.1302C151.321 15.3694 151.473 14.5307 151.473 13.6141C151.473 12.6975 151.321 11.8559 151.014 11.0951Z" fill="white"/>
<path fill-rule="evenodd" clip-rule="evenodd" d="M126.318 15.2136C126.318 16.0163 126.175 16.6663 125.885 17.1635C125.596 17.6638 125.208 18.0292 124.722 18.2628C124.235 18.4934 123.686 18.6103 123.075 18.6103C122.463 18.6103 121.893 18.4934 121.401 18.2628C120.909 18.0292 120.518 17.6638 120.228 17.1635C119.939 16.6633 119.796 16.0133 119.796 15.2136V7.5127H118.408V15.1956C118.408 16.253 118.623 17.1216 119.05 17.8075C119.479 18.4935 120.043 19.0027 120.75 19.3321C121.455 19.6616 122.224 19.8294 123.057 19.8294C123.668 19.8294 124.253 19.7365 124.811 19.5508C125.366 19.3651 125.864 19.0835 126.303 18.7061C126.742 18.3287 127.088 17.8495 127.335 17.2684C127.583 16.6873 127.708 15.9954 127.708 15.1956V7.5127H126.321V15.2106L126.318 15.2136Z" fill="white"/>
<path fill-rule="evenodd" clip-rule="evenodd" d="M4.29445 22.5042V25.9128H9.64417L10.6258 22.5042H22.841L23.8226 25.9128H29.1723V11.0771H29.1663L33.242 11.0651V7.59959L28.8799 7.5936H4.58088L4.29445 11.0741L0.21875 11.0622V7.5966L4.58088 7.59061L7.31392 0.935059H26.1558L28.8859 7.5936H28.8829L29.1693 11.0741H4.29445V22.5012V22.5042ZM6.61574 14.9051H12.3295L11.4911 18.3857H6.61574V14.9051ZM26.851 14.9051V18.3857H21.9787L21.1403 14.9051H26.854H26.851Z" fill="white"/>
</g>
<defs>
<clipPath id="clip0_129_10643">
<rect width="151.254" height="24.9778" fill="white" transform="translate(0.21875 0.935059)"/>
</clipPath>
</defs>
</svg>
