<svg width="133" height="24" viewBox="0 0 133 24" fill="none" xmlns="http://www.w3.org/2000/svg">
<path fill-rule="evenodd" clip-rule="evenodd" d="M11.0668 22.3497C10.5399 22.3497 10.0258 22.3116 9.51796 22.2355C10.1591 21.8292 10.7557 21.3785 11.308 20.8834C13.4154 18.9919 14.8436 16.4782 15.2308 13.6726C17.1478 14.5485 18.7093 15.8688 19.8201 17.424C18.0237 20.3756 14.7674 22.3497 11.0604 22.3497H11.0668ZM15.2435 10.6004L15.3196 10.6257C17.5984 11.4573 19.5471 12.7903 21.0515 14.4153C21.2229 13.6726 21.3181 12.8918 21.3181 12.092C21.3181 6.42999 16.7288 1.8407 11.0668 1.8407C10.5399 1.8407 10.0258 1.87878 9.51796 1.95495C10.1591 2.3612 10.7557 2.81188 11.308 3.30699C13.4344 5.21761 14.869 7.75029 15.2435 10.5877V10.6004ZM5.79828 20.8961C7.16301 20.4074 8.38174 19.6774 9.40371 18.7633C11.1429 17.2018 12.2728 15.1071 12.4632 12.7839C10.267 12.365 8.08976 12.5871 6.19818 13.3425C4.44625 14.0471 2.94822 15.2087 1.92626 16.7385C2.80222 18.4587 4.15426 19.9059 5.80463 20.8961H5.79828ZM0.910643 13.4885C0.847168 13.0315 0.81543 12.5681 0.81543 12.092C0.81543 8.35331 2.81492 5.09065 5.79828 3.29428C7.16301 3.78304 8.38174 4.51303 9.40371 5.42708C10.743 6.62677 11.7206 8.15018 12.1839 9.84499C9.71474 9.51491 7.28361 9.8323 5.13813 10.6892C3.53854 11.3303 2.09129 12.2761 0.910643 13.4822V13.4885Z" fill="white"/>
<path fill-rule="evenodd" clip-rule="evenodd" d="M25.4758 6.66492H34.591V8.6644H31.2267V17.5193H28.84V8.6644H25.4758V6.66492ZM78.3893 6.67125H80.7759V17.5256H78.3893V6.67125ZM72.7907 6.67125C73.6667 6.67125 74.403 6.82996 74.987 7.14099C75.5709 7.45837 76.0089 7.87729 76.2946 8.3978C76.5865 8.9183 76.7262 9.48959 76.7262 10.1116C76.7262 10.5369 76.65 10.9495 76.504 11.3621C76.3517 11.7684 76.1232 12.1429 75.8058 12.4793C75.4948 12.8094 75.0949 13.076 74.5998 13.2727L76.9484 17.5256H74.2951L72.2321 13.5711H70.4484V17.5256H68.0617V6.67125H72.7907ZM74.2951 10.1116C74.2951 9.66732 74.1618 9.3182 73.9015 9.05795C73.6349 8.7977 73.2287 8.67074 72.6701 8.67074H70.4548V11.5716H72.6701C73.0446 11.5716 73.3493 11.5145 73.5841 11.4002C73.819 11.286 74.0031 11.1209 74.1173 10.8987C74.2379 10.6766 74.2951 10.4163 74.2951 10.118V10.1116ZM64.2659 10.1751C63.9676 9.62924 63.5867 9.22933 63.1233 8.97543C62.6663 8.72152 62.1521 8.59457 61.5809 8.59457C60.9842 8.59457 60.4383 8.74691 59.9622 9.0516C59.4798 9.35628 59.1053 9.77522 58.8324 10.3021C58.5594 10.8289 58.4198 11.4319 58.4198 12.0984C58.4198 12.7649 58.5531 13.4124 58.826 13.9329C59.0926 14.4534 59.4735 14.866 59.9559 15.158C60.4446 15.45 61.0096 15.6023 61.6634 15.6023C62.0696 15.6023 62.4378 15.5325 62.7806 15.3928C63.1233 15.2532 63.428 15.0564 63.6946 14.8089C63.9612 14.5613 64.1897 14.2757 64.3738 13.9583V13.4632H61.5809V11.5716H66.6208V14.3963C66.3733 14.9675 66.0115 15.4944 65.5354 15.9832C65.0593 16.4719 64.4881 16.8718 63.8152 17.1765C63.1424 17.4812 62.3807 17.6335 61.5237 17.6335C60.7176 17.6335 59.9813 17.5002 59.3084 17.2273C58.6356 16.9543 58.0516 16.5735 57.5565 16.0784C57.0614 15.5833 56.6742 14.9929 56.4012 14.3201C56.1283 13.6409 55.9886 12.8982 55.9886 12.0921C55.9886 11.2859 56.1283 10.5433 56.4012 9.87044C56.6742 9.19125 57.055 8.60728 57.5502 8.11217C58.0389 7.61705 58.6229 7.23618 59.2957 6.96324C59.9686 6.69664 60.7049 6.56335 61.511 6.56335C62.2664 6.56335 62.9773 6.68396 63.6438 6.91882C64.3103 7.15368 64.8943 7.50279 65.3894 7.94712C65.8845 8.3978 66.2527 8.94368 66.4875 9.58479L64.2722 10.1751H64.2659ZM54.5604 6.67125V17.5256H52.142L47.7368 10.6068V17.5256H45.3501V6.67125H47.7685L52.1547 13.6219V6.67125H54.5604ZM43.9092 8.67074H38.4185V11.1526H42.5254V13.0442H38.4185V15.5261H43.9092V17.5256H36.0319V6.67125H43.9092V8.67074Z" fill="white"/>
<path fill-rule="evenodd" clip-rule="evenodd" d="M100.333 7.1029C99.7868 6.81091 99.0949 6.67126 98.2443 6.67126H94.4167V17.5256H95.6545V13.0887H98.2443C98.8981 13.0887 99.4567 13.0061 99.9201 12.8348C100.383 12.6634 100.771 12.4285 101.069 12.1302C101.367 11.8319 101.59 11.4891 101.729 11.1019C101.869 10.7147 101.939 10.3084 101.939 9.88314C101.939 9.29281 101.805 8.75328 101.545 8.27087C101.278 7.7821 100.879 7.39489 100.333 7.10925V7.1029ZM100.46 10.994C100.288 11.3113 100.022 11.5653 99.6598 11.7366C99.298 11.9144 98.8283 12.0032 98.2507 12.0032H95.6609V7.7567H98.2507C99.1203 7.7567 99.7487 7.94078 100.136 8.31529C100.523 8.68979 100.72 9.2103 100.72 9.88314C100.72 10.3084 100.637 10.6766 100.466 11.0003L100.46 10.994Z" fill="white"/>
<path fill-rule="evenodd" clip-rule="evenodd" d="M91.5793 12.4413C91.2619 12.2128 90.9064 12.0224 90.5065 11.8701C90.1066 11.7177 89.7004 11.5717 89.2751 11.4384C88.8117 11.3051 88.3864 11.1591 87.9929 11.0131C87.5993 10.8671 87.2947 10.664 87.0598 10.4228C86.8249 10.1816 86.7107 9.85154 86.7107 9.43894C86.7107 9.05809 86.8059 8.72801 87.0027 8.46141C87.1994 8.19481 87.466 7.98533 87.8025 7.83934C88.1389 7.69335 88.5134 7.62353 88.926 7.62353C89.3386 7.62353 89.7258 7.69335 90.0559 7.83934C90.3859 7.98533 90.6525 8.16941 90.862 8.39158C91.0715 8.61374 91.2111 8.84227 91.2809 9.08348L92.3791 8.66454C92.2331 8.25194 92.0109 7.88378 91.7062 7.57275C91.4015 7.25537 91.0207 7.01416 90.5637 6.83643C90.1066 6.6587 89.5734 6.56982 88.9641 6.56982C88.2595 6.56982 87.6438 6.69677 87.1169 6.94433C86.5901 7.19188 86.1838 7.54102 85.8918 7.9917C85.5999 8.44237 85.4602 8.96922 85.4602 9.57859C85.4602 10.0864 85.5554 10.5117 85.7522 10.8481C85.949 11.1909 86.2092 11.4638 86.5456 11.6796C86.8757 11.8891 87.2439 12.0668 87.6565 12.2065C88.0627 12.3461 88.4753 12.4731 88.8879 12.5873C89.3513 12.7206 89.7702 12.873 90.1447 13.0444C90.5192 13.2157 90.8112 13.4316 91.027 13.6855C91.2428 13.9457 91.3508 14.2758 91.3508 14.6757C91.3508 15.1835 91.1603 15.6215 90.7795 15.996C90.3986 16.3705 89.8083 16.5546 89.0085 16.5546C88.4499 16.5546 87.9929 16.4657 87.6374 16.2816C87.282 16.1039 87.0027 15.8754 86.7995 15.6024C86.5964 15.3295 86.4631 15.0502 86.406 14.7709L85.2761 15.2216C85.4031 15.685 85.6252 16.0976 85.9617 16.4594C86.2917 16.8212 86.717 17.1068 87.2312 17.3226C87.7453 17.5321 88.3484 17.64 89.0275 17.64C89.8464 17.64 90.5129 17.5004 91.0334 17.2147C91.5539 16.9291 91.9474 16.5546 92.2013 16.0849C92.4616 15.6151 92.5885 15.1073 92.5885 14.5551C92.5885 14.06 92.4933 13.641 92.3092 13.2983C92.1252 12.9555 91.8713 12.6699 91.5602 12.4477L91.5793 12.4413Z" fill="white"/>
<path fill-rule="evenodd" clip-rule="evenodd" d="M112.196 8.1057C111.707 7.61693 111.136 7.23607 110.482 6.96312C109.828 6.69652 109.117 6.55688 108.368 6.55688C107.619 6.55688 106.889 6.69017 106.236 6.96312C105.582 7.22972 105.004 7.61058 104.515 8.1057C104.027 8.59446 103.639 9.17844 103.366 9.85763C103.094 10.5368 102.954 11.2795 102.954 12.0983C102.954 12.9172 103.094 13.6598 103.366 14.339C103.639 15.0182 104.02 15.6022 104.515 16.0909C105.004 16.5797 105.582 16.9606 106.236 17.2335C106.889 17.5001 107.6 17.6398 108.368 17.6398C109.136 17.6398 109.828 17.5065 110.482 17.2335C111.136 16.9669 111.707 16.5861 112.196 16.0909C112.685 15.6022 113.059 15.0182 113.339 14.339C113.611 13.6598 113.751 12.9172 113.751 12.0983C113.751 11.2795 113.611 10.5368 113.339 9.85763C113.066 9.17844 112.685 8.59446 112.196 8.1057ZM111.929 14.466C111.568 15.1325 111.079 15.6466 110.457 16.0084C109.835 16.3702 109.136 16.548 108.362 16.548C107.588 16.548 106.87 16.3702 106.248 16.0084C105.62 15.6466 105.131 15.1325 104.769 14.466C104.407 13.7995 104.223 13.0124 104.223 12.0983C104.223 11.1843 104.407 10.3845 104.769 9.71799C105.131 9.05149 105.626 8.53733 106.248 8.18186C106.877 7.8264 107.581 7.64867 108.362 7.64867C109.143 7.64867 109.835 7.8264 110.457 8.18186C111.079 8.53733 111.568 9.05149 111.929 9.71799C112.291 10.3845 112.469 11.1779 112.469 12.0983C112.469 13.0187 112.291 13.7995 111.929 14.466Z" fill="white"/>
<path fill-rule="evenodd" clip-rule="evenodd" d="M124.148 6.67126V7.7567H127.602V17.5256H128.846V7.7567H132.286V6.67126H124.148Z" fill="white"/>
<path fill-rule="evenodd" clip-rule="evenodd" d="M120.918 12.8283C121.381 12.6506 121.768 12.4157 122.067 12.1174C122.365 11.819 122.587 11.4763 122.727 11.0954C122.866 10.7145 122.936 10.3083 122.936 9.88301C122.936 9.28634 122.803 8.74045 122.53 8.26439C122.263 7.78197 121.857 7.40111 121.311 7.10912C120.765 6.81713 120.073 6.67749 119.223 6.67749H115.408V17.5319H116.646V13.0949H119.064L121.717 17.5319H123.127L120.334 12.9806C120.537 12.9425 120.734 12.8981 120.911 12.8346L120.918 12.8283ZM116.652 7.75657H119.229C120.099 7.75657 120.721 7.94701 121.108 8.32786C121.489 8.70872 121.679 9.22922 121.679 9.87668C121.679 10.302 121.597 10.6701 121.425 10.9938C121.254 11.3112 120.994 11.5651 120.632 11.7365C120.277 11.9142 119.813 12.0031 119.242 12.0031H116.652V7.75657Z" fill="white"/>
</svg>
