<svg width="117" height="24" viewBox="0 0 117 24" fill="none" xmlns="http://www.w3.org/2000/svg">
<path fill-rule="evenodd" clip-rule="evenodd" d="M5.5969 21.9855L5.4509 14.5398L11.7731 18.2341L17.2955 15.0031L17.3336 21.9855H5.5969ZM22.856 11.7405V21.9855H19.8599V13.5051C20.8565 12.9211 21.8531 12.3308 22.856 11.7405ZM0.690216 8.70634L11.7731 15.1872L22.856 8.70634L11.7731 2.22546L0.690216 8.70634Z" fill="white"/>
<path fill-rule="evenodd" clip-rule="evenodd" d="M27.0201 6.66882H36.1352V8.6683H32.771V17.5232H30.3843V8.6683H27.0201V6.66882ZM79.9335 6.67517H82.3202V17.5295H79.9335V6.67517ZM74.335 6.67517C75.2109 6.67517 75.9472 6.83386 76.5312 7.15124C77.1152 7.46862 77.5532 7.88757 77.8388 8.40807C78.1308 8.92857 78.2704 9.49984 78.2704 10.1219C78.2704 10.5472 78.1943 10.9598 78.0483 11.3724C77.8959 11.7786 77.6674 12.1531 77.3501 12.4896C77.039 12.8196 76.6391 13.0862 76.144 13.283L78.4926 17.5359H75.8393L73.7764 13.5813H71.9927V17.5359H69.606V6.68153H74.335V6.67517ZM75.8393 10.1155C75.8393 9.67122 75.706 9.32212 75.4458 9.06187C75.1792 8.80162 74.7729 8.67466 74.2143 8.67466H71.999V11.5755H74.2143C74.5889 11.5755 74.8935 11.5184 75.1284 11.4041C75.3633 11.2899 75.5473 11.1248 75.6616 10.9027C75.7822 10.6805 75.8393 10.4202 75.8393 10.1219V10.1155ZM65.8102 10.179C65.5118 9.63314 65.131 9.23325 64.6676 8.97935C64.2106 8.72544 63.6964 8.59849 63.1251 8.59849C62.5285 8.59849 61.9826 8.75083 61.5065 9.05551C61.0241 9.3602 60.6496 9.77914 60.3766 10.306C60.1037 10.8328 59.964 11.4295 59.964 12.1023C59.964 12.7752 60.0973 13.4163 60.3703 13.9368C60.6369 14.4573 61.0177 14.8699 61.5001 15.1619C61.9889 15.4539 62.5538 15.6062 63.2076 15.6062C63.6139 15.6062 63.982 15.5364 64.3248 15.3967C64.6676 15.2571 64.9723 15.0667 65.2389 14.8128C65.5055 14.5652 65.734 14.2796 65.9181 13.9622V13.4671H63.1251V11.5755H68.1651V14.4002C67.9175 14.9714 67.5557 15.4983 67.0797 15.9871C66.6036 16.4758 66.0323 16.8757 65.3595 17.1804C64.6866 17.4851 63.9249 17.6374 63.068 17.6374C62.2619 17.6374 61.5255 17.5041 60.8527 17.2375C60.1798 16.9709 59.5959 16.5837 59.1008 16.0886C58.6056 15.5935 58.2184 15.0032 57.9455 14.3304C57.6725 13.6512 57.5329 12.9148 57.5329 12.1023C57.5329 11.2899 57.6725 10.5535 57.9455 9.88069C58.2184 9.2015 58.5993 8.61753 59.0944 8.12242C59.5832 7.62731 60.1671 7.24645 60.84 6.97351C61.5128 6.70691 62.2491 6.57361 63.0553 6.57361C63.8106 6.57361 64.5216 6.69421 65.1881 6.92907C65.8546 7.16393 66.4386 7.51305 66.9337 7.95738C67.4288 8.40805 67.7969 8.95396 68.0318 9.59506L65.8165 10.1854L65.8102 10.179ZM56.1047 6.67517V17.5295H53.6863L49.281 10.6107V17.5295H46.8944V6.67517H49.3128L53.699 13.6258V6.67517H56.1047ZM45.4535 8.67466H39.9628V11.1566H44.0697V13.0481H39.9628V15.53H45.4535V17.5295H37.5761V6.67517H45.4535V8.67466Z" fill="white"/>
<path fill-rule="evenodd" clip-rule="evenodd" d="M94.4777 7.76683H88.5999V11.4738H93.0178V12.5592H88.5999V16.4503H94.4777V17.5357H87.3621V6.6814H94.4777V7.76683ZM100.083 6.6814C101.282 6.6814 102.311 6.90355 103.161 7.34153C104.012 7.77951 104.672 8.40793 105.129 9.22676C105.586 10.0456 105.821 11.0168 105.821 12.1403C105.821 13.2638 105.592 14.216 105.129 15.0221C104.666 15.8282 104.012 16.4503 103.161 16.8819C102.311 17.3136 101.282 17.5357 100.083 17.5357H96.5026V6.6814H100.083ZM100.083 16.4503C101.562 16.4503 102.679 16.0758 103.434 15.3204C104.19 14.5651 104.564 13.505 104.564 12.1403C104.564 10.7756 104.19 9.69015 103.434 8.92209C102.679 8.15403 101.562 7.76683 100.083 7.76683H97.7404V16.4503H100.083ZM107.439 6.6814H108.677V13.5368C108.677 14.2477 108.804 14.8317 109.064 15.276C109.325 15.7203 109.674 16.0441 110.112 16.2535C110.55 16.463 111.051 16.5646 111.61 16.5646C112.168 16.5646 112.651 16.463 113.083 16.2535C113.514 16.0441 113.863 15.7203 114.123 15.276C114.384 14.8317 114.511 14.2541 114.511 13.5368V6.6814H115.748V13.5177C115.748 14.2287 115.634 14.8444 115.412 15.3649C115.19 15.879 114.885 16.3107 114.492 16.6471C114.098 16.9835 113.654 17.2311 113.159 17.3961C112.664 17.5611 112.143 17.6437 111.591 17.6437C110.848 17.6437 110.156 17.4977 109.528 17.1993C108.899 16.901 108.392 16.4503 108.011 15.841C107.63 15.2316 107.439 14.4572 107.439 13.5177V6.6814Z" fill="white"/>
</svg>
