<svg width="112" height="24" viewBox="0 0 112 24" fill="none" xmlns="http://www.w3.org/2000/svg">
<path fill-rule="evenodd" clip-rule="evenodd" d="M10.6073 2.89197V12.2737H19.4749C19.5638 7.2718 15.6092 3.07605 10.6073 2.89197ZM7.09712 3.45056V15.7839H18.7068C17.2786 19.0339 14.0287 21.319 10.2646 21.319H1.04785V12.1023C1.04785 8.14776 3.5742 4.75181 7.09076 3.45056H7.09712Z" fill="white"/>
<path fill-rule="evenodd" clip-rule="evenodd" d="M23.6399 6.66846H32.755V8.66795H29.3908V17.5228H27.0041V8.66795H23.6399V6.66846ZM76.5534 6.6748H78.94V17.5292H76.5534V6.6748ZM70.9547 6.6748C71.8307 6.6748 72.5671 6.8335 73.1511 7.14453C73.735 7.46191 74.173 7.88084 74.4586 8.40135C74.7506 8.92185 74.8903 9.49314 74.8903 10.1152C74.8903 10.5405 74.8141 10.9531 74.6681 11.3657C74.5157 11.7719 74.2872 12.1464 73.9698 12.4828C73.6588 12.8129 73.2589 13.0795 72.7638 13.2763L75.1124 17.5292H72.4591L70.3962 13.5746H68.6125V17.5292H66.2258V6.6748H70.9547ZM72.4591 10.1152C72.4591 9.67087 72.3258 9.32175 72.0656 9.0615C71.799 8.80125 71.3928 8.6743 70.8342 8.6743H68.6189V11.5751H70.8342C71.2087 11.5751 71.5133 11.518 71.7482 11.4038C71.9831 11.2895 72.1671 11.1245 72.2814 10.9023C72.402 10.6801 72.4591 10.4199 72.4591 10.1215V10.1152ZM62.43 10.1787C62.1316 9.63278 61.7508 9.23288 61.2874 8.97898C60.8304 8.72507 60.3162 8.59813 59.7449 8.59813C59.1482 8.59813 58.6024 8.75046 58.1263 9.05515C57.6439 9.35983 57.2694 9.77877 56.9964 10.3056C56.7235 10.8325 56.5838 11.4291 56.5838 12.102C56.5838 12.7748 56.7171 13.4159 56.9901 13.9364C57.2567 14.4569 57.6375 14.8695 58.12 15.1615C58.6087 15.4535 59.1736 15.6059 59.8274 15.6059C60.2337 15.6059 60.6018 15.536 60.9446 15.3964C61.2874 15.2567 61.5921 15.06 61.8587 14.8124C62.1253 14.5649 62.3538 14.2792 62.5378 13.9618V13.4667H59.7449V11.5751H64.7849V14.3998C64.5374 14.9711 64.1756 15.4979 63.6995 15.9867C63.2234 16.4755 62.6521 16.8754 61.9793 17.1801C61.3064 17.4847 60.5447 17.6371 59.6878 17.6371C58.8816 17.6371 58.1453 17.5038 57.4725 17.2308C56.7996 16.9642 56.2157 16.577 55.7206 16.0819C55.2254 15.5868 54.8383 14.9965 54.5653 14.3236C54.2924 13.6444 54.1527 12.9018 54.1527 12.0956C54.1527 11.2895 54.2924 10.5468 54.5653 9.87399C54.8383 9.1948 55.2191 8.61082 55.7142 8.11571C56.203 7.62059 56.7869 7.23974 57.4598 6.9668C58.1326 6.7002 58.8689 6.56689 59.6751 6.56689C60.4304 6.56689 61.1414 6.68751 61.8079 6.92237C62.4744 7.15723 63.0583 7.50634 63.5534 7.95067C64.0486 8.40135 64.4168 8.94724 64.6516 9.58835L62.4363 10.1787H62.43ZM52.7245 6.6748V17.5292H50.306L45.9009 10.6103V17.5292H43.5142V6.6748H45.9326L50.3188 13.6254V6.6748H52.7245ZM42.0733 8.6743H36.5826V11.1562H40.6895V13.0478H36.5826V15.5297H42.0733V17.5292H34.1959V6.6748H42.0733V8.6743Z" fill="white"/>
<path fill-rule="evenodd" clip-rule="evenodd" d="M85.2241 6.67468V16.4436H90.2958V17.529H83.9863V6.67468H85.2241ZM91.7431 6.67468H92.9809V17.529H91.7431V6.67468ZM95.3167 6.67468H102.432V7.76012H96.5546V11.4671H100.972V12.5525H96.5546V17.529H95.3167V6.67468ZM111.237 7.76012H105.359V11.4671H109.777V12.5525H105.359V16.4436H111.237V17.529H104.121V6.67468H111.237V7.76012Z" fill="white"/>
</svg>
