<svg width="147" height="27" viewBox="0 0 147 27" fill="none" xmlns="http://www.w3.org/2000/svg">
<path fill-rule="evenodd" clip-rule="evenodd" d="M8.07332 24.6065H15.9824L8.07332 18.6006V24.6065ZM1.48242 10.1065H8.07332L15.9824 16.1124V10.1065H22.5733V3.51562H1.48242V10.1065Z" fill="white"/>
<path fill-rule="evenodd" clip-rule="evenodd" d="M27.4297 7.77335H38.064V10.1061H34.1391V20.4368H31.3546V10.1061H27.4297V7.77335ZM89.162 7.78076H91.9465V20.4442H89.162V7.78076ZM82.6304 7.78076C83.6523 7.78076 84.5114 7.9659 85.1927 8.32877C85.874 8.69904 86.385 9.18781 86.7182 9.79506C87.0589 10.4023 87.2218 11.0688 87.2218 11.7945C87.2218 12.2907 87.1329 12.7721 86.9626 13.2534C86.7849 13.7274 86.5183 14.1643 86.148 14.5568C85.7851 14.9419 85.3186 15.2529 84.7409 15.4825L87.481 20.4442H84.3855L81.9787 15.8305H79.8977V20.4442H77.1133V7.78076H82.6304ZM84.3855 11.7945C84.3855 11.2762 84.23 10.8689 83.9263 10.5652C83.6153 10.2616 83.1413 10.1135 82.4897 10.1135H79.9051V13.4978H82.4897C82.9266 13.4978 83.282 13.4312 83.5561 13.2979C83.8301 13.1646 84.0448 12.972 84.1781 12.7128C84.3188 12.4536 84.3855 12.15 84.3855 11.802V11.7945ZM72.6848 11.8686C72.3367 11.2317 71.8924 10.7652 71.3518 10.469C70.8186 10.1727 70.2187 10.0246 69.5522 10.0246C68.8561 10.0246 68.2192 10.2024 67.6638 10.5578C67.101 10.9133 66.6641 11.4021 66.3456 12.0167C66.0272 12.6314 65.8643 13.3349 65.8643 14.1125C65.8643 14.89 66.0198 15.6454 66.3382 16.2527C66.6493 16.8599 67.0936 17.3413 67.6564 17.6819C68.2266 18.0226 68.8857 18.2003 69.6485 18.2003C70.1225 18.2003 70.552 18.1189 70.9519 17.9559C71.3518 17.793 71.7072 17.5634 72.0183 17.2746C72.3293 16.9858 72.5959 16.6526 72.8107 16.2823V15.7047H69.5522V13.4978H75.4322V16.7933C75.1434 17.4598 74.7213 18.0744 74.1659 18.6446C73.6105 19.2149 72.944 19.6814 72.159 20.0369C71.374 20.3923 70.4853 20.5701 69.4856 20.5701C68.5451 20.5701 67.686 20.4146 66.9011 20.0961C66.1161 19.7777 65.4348 19.3334 64.8571 18.7557C64.2795 18.1781 63.8278 17.4894 63.5093 16.7044C63.1909 15.912 63.028 15.0456 63.028 14.1051C63.028 13.1646 63.1909 12.2981 63.5093 11.5131C63.8278 10.7207 64.2721 10.0394 64.8497 9.46181C65.42 8.88418 66.1013 8.43985 66.8862 8.12141C67.6712 7.81038 68.5303 7.64746 69.4708 7.64746C70.352 7.64746 71.1814 7.78817 71.959 8.06217C72.7366 8.33617 73.4179 8.74348 73.9955 9.26186C74.5732 9.78765 75.0027 10.4245 75.2767 11.1725L72.6922 11.8612L72.6848 11.8686ZM61.3617 7.78076V20.4442H58.5402L53.4008 12.3722V20.4442H50.6163V7.78076H53.4378L58.555 15.8898V7.78076H61.3617ZM48.9353 10.1135H42.5295V13.009H47.3209V15.2159H42.5295V18.1114H48.9353V20.4442H39.745V7.78076H48.9353V10.1135Z" fill="white"/>
<path fill-rule="evenodd" clip-rule="evenodd" d="M107.505 7.78019V20.4436H106.039L99.2702 10.0981V20.4436H97.8262V7.78019H99.2925L106.061 18.1109V7.78019H107.505ZM118.532 9.04653H111.674V13.3714H116.829V14.6377H111.674V19.1773H118.532V20.4436H110.23V7.78019H118.532V9.04653ZM125.019 20.4436H123.427L119.865 7.78019H121.405L124.227 18.6885L127.337 7.78019H128.944L132.04 18.6737L134.883 7.78019H136.401L132.839 20.4436H131.247L128.137 9.95L125.027 20.4436H125.019ZM138.816 17.2222C138.89 17.5481 139.045 17.8739 139.275 18.1923C139.512 18.5108 139.838 18.7774 140.252 18.9847C140.667 19.1995 141.2 19.3032 141.852 19.3032C142.778 19.3032 143.466 19.0884 143.918 18.6515C144.362 18.2146 144.585 17.7036 144.585 17.1111C144.585 16.6372 144.459 16.2521 144.207 15.9559C143.955 15.6522 143.607 15.4005 143.178 15.2079C142.741 15.008 142.252 14.8302 141.711 14.6747C141.23 14.5414 140.749 14.3933 140.275 14.2304C139.801 14.0675 139.364 13.8601 138.979 13.6157C138.593 13.3714 138.282 13.0455 138.053 12.6456C137.823 12.2457 137.712 11.7495 137.712 11.1645C137.712 10.4536 137.883 9.83152 138.216 9.31313C138.556 8.78734 139.03 8.38004 139.645 8.09122C140.26 7.80241 140.978 7.6543 141.8 7.6543C142.511 7.6543 143.133 7.75797 143.666 7.96533C144.199 8.17268 144.644 8.45409 144.999 8.82437C145.355 9.19464 145.614 9.61676 145.784 10.0981L144.503 10.5869C144.422 10.3129 144.259 10.0389 144.014 9.77968C143.77 9.52049 143.459 9.30573 143.074 9.1354C142.689 8.96507 142.244 8.88361 141.756 8.88361C141.267 8.88361 140.837 8.96507 140.445 9.1354C140.052 9.30573 139.741 9.5427 139.512 9.86114C139.282 10.1722 139.171 10.5573 139.171 11.0016C139.171 11.4829 139.304 11.868 139.578 12.1494C139.852 12.4309 140.208 12.6604 140.667 12.8382C141.119 13.0159 141.615 13.1788 142.163 13.3343C142.659 13.4898 143.14 13.6602 143.6 13.8379C144.066 14.0156 144.481 14.2452 144.851 14.5044C145.221 14.771 145.51 15.1042 145.725 15.4967C145.94 15.8966 146.051 16.3854 146.051 16.963C146.051 17.5999 145.903 18.1997 145.599 18.7478C145.295 19.2958 144.844 19.7401 144.236 20.0659C143.629 20.3992 142.844 20.5621 141.896 20.5621C141.104 20.5621 140.4 20.4362 139.801 20.1918C139.201 19.9474 138.705 19.6068 138.319 19.1847C137.934 18.7626 137.668 18.2812 137.52 17.7406L138.838 17.2148L138.816 17.2222Z" fill="white"/>
</svg>
